<svg xmlns="http://www.w3.org/2000/svg" viewBox="0 0 64 64" shape-rendering="crispEdges" aria-hidden="true"><defs><symbol id="art-villager" viewBox="0 0 64 64"><rect x="26" y="3" width="6" height="1" fill="#12151a"/><rect x="24" y="4" width="2" height="1" fill="#12151a"/><rect x="26" y="4" width="6" height="1" fill="#bd9786"/><rect x="32" y="4" width="11" height="1" fill="#12151a"/><rect x="22" y="5" width="2" height="1" fill="#12151a"/><rect x="24" y="5" width="19" height="1" fill="#bd9786"/><rect x="43" y="5" width="4" height="1" fill="#12151a"/><rect x="20" y="6" width="2" height="1" fill="#12151a"/><rect x="22" y="6" width="24" height="1" fill="#bd9786"/><rect x="46" y="6" width="1" height="1" fill="#a48374"/><rect x="47" y="6" width="1" height="1" fill="#12151a"/><rect x="19" y="7" width="1" height="1" fill="#12151a"/><rect x="20" y="7" width="24" height="1" fill="#bd9786"/><rect x="44" y="7" width="3" height="1" fill="#a48374"/><rect x="47" y="7" width="1" height="1" fill="#12151a"/><rect x="18" y="8" width="1" height="1" fill="#12151a"/><rect x="19" y="8" width="8" height="1" fill="#ab8979"/><rect x="27" y="8" width="15" height="1" fill="#bd9786"/><rect x="42" y="8" width="5" height="1" fill="#a48374"/><rect x="47" y="8" width="1" height="1" fill="#12151a"/><rect x="18" y="9" width="1" height="1" fill="#12151a"/><rect x="19" y="9" width="19" height="1" fill="#ab8979"/><rect x="38" y="9" width="2" height="1" fill="#bd9786"/><rect x="40" y="9" width="7" height="1" fill="#a48374"/><rect x="47" y="9" width="1" height="1" fill="#12151a"/><rect x="18" y="10" width="1" height="1" fill="#12151a"/><rect x="19" y="10" width="20" height="1" fill="#ab8979"/><rect x="39" y="10" width="8" height="1" fill="#a48374"/><rect x="47" y="10" width="1" height="1" fill="#12151a"/><rect x="18" y="11" width="1" height="1" fill="#12151a"/><rect x="19" y="11" width="20" height="1" fill="#ab8979"/><rect x="39" y="11" width="8" height="1" fill="#a48374"/><rect x="47" y="11" width="1" height="1" fill="#12151a"/><rect x="18" y="12" width="1" height="1" fill="#12151a"/><rect x="19" y="12" width="20" height="1" fill="#ab8979"/><rect x="39" y="12" width="8" height="1" fill="#a48374"/><rect x="47" y="12" width="1" height="1" fill="#12151a"/><rect x="18" y="13" width="1" height="1" fill="#12151a"/><rect x="19" y="13" width="20" height="1" fill="#ab8979"/><rect x="39" y="13" width="8" height="1" fill="#a48374"/><rect x="47" y="13" width="1" height="1" fill="#12151a"/><rect x="18" y="14" width="1" height="1" fill="#12151a"/><rect x="19" y="14" width="20" height="1" fill="#ab8979"/><rect x="39" y="14" width="8" height="1" fill="#a48374"/><rect x="47" y="14" width="1" height="1" fill="#12151a"/><rect x="18" y="15" width="1" height="1" fill="#12151a"/><rect x="19" y="15" width="20" height="1" fill="#ab8979"/><rect x="39" y="15" width="8" height="1" fill="#a48374"/><rect x="47" y="15" width="1" height="1" fill="#12151a"/><rect x="18" y="16" width="1" height="1" fill="#12151a"/><rect x="19" y="16" width="2" height="1" fill="#381e05"/><rect x="21" y="16" width="1" height="1" fill="#3e2105"/><rect x="22" y="16" width="17" height="1" fill="#ab8979"/><rect x="39" y="16" width="8" height="1" fill="#a48374"/><rect x="47" y="16" width="1" height="1" fill="#12151a"/><rect x="18" y="17" width="1" height="1" fill="#12151a"/><rect x="19" y="17" width="7" height="1" fill="#381e05"/><rect x="26" y="17" width="13" height="1" fill="#ab8979"/><rect x="39" y="17" width="8" height="1" fill="#a48374"/><rect x="47" y="17" width="1" height="1" fill="#12151a"/><rect x="18" y="18" width="1" height="1" fill="#12151a"/><rect x="19" y="18" width="7" height="1" fill="#381e05"/><rect x="26" y="18" width="13" height="1" fill="#ab8979"/><rect x="39" y="18" width="8" height="1" fill="#a48374"/><rect x="47" y="18" width="1" height="1" fill="#12151a"/><rect x="18" y="19" width="1" height="1" fill="#12151a"/><rect x="19" y="19" width="4" height="1" fill="#ab8979"/><rect x="23" y="19" width="3" height="1" fill="#381e05"/><rect x="26" y="19" width="13" height="1" fill="#ab8979"/><rect x="39" y="19" width="8" height="1" fill="#a48374"/><rect x="47" y="19" width="1" height="1" fill="#12151a"/><rect x="18" y="20" width="1" height="1" fill="#12151a"/><rect x="19" y="20" width="4" height="1" fill="#ab8979"/><rect x="23" y="20" width="7" height="1" fill="#381e05"/><rect x="30" y="20" width="9" height="1" fill="#ab8979"/><rect x="39" y="20" width="8" height="1" fill="#a48374"/><rect x="47" y="20" width="1" height="1" fill="#12151a"/><rect x="18" y="21" width="1" height="1" fill="#12151a"/><rect x="19" y="21" width="4" height="1" fill="#ab8979"/><rect x="23" y="21" width="7" height="1" fill="#381e05"/><rect x="30" y="21" width="9" height="1" fill="#ab8979"/><rect x="39" y="21" width="7" height="1" fill="#a48374"/><rect x="46" y="21" width="1" height="1" fill="#361c04"/><rect x="47" y="21" width="1" height="1" fill="#12151a"/><rect x="18" y="22" width="1" height="1" fill="#12151a"/><rect x="19" y="22" width="2" height="1" fill="#ab8979"/><rect x="21" y="22" width="7" height="1" fill="#26201c"/><rect x="28" y="22" width="2" height="1" fill="#381e05"/><rect x="30" y="22" width="9" height="1" fill="#ab8979"/><rect x="39" y="22" width="5" height="1" fill="#a48374"/><rect x="44" y="22" width="3" height="1" fill="#361c04"/><rect x="47" y="22" width="1" height="1" fill="#12151a"/><rect x="18" y="23" width="1" height="1" fill="#12151a"/><rect x="19" y="23" width="2" height="1" fill="#ab8979"/><rect x="21" y="23" width="16" height="1" fill="#26201c"/><rect x="37" y="23" width="2" height="1" fill="#ab8979"/><rect x="39" y="23" width="3" height="1" fill="#a48374"/><rect x="42" y="23" width="5" height="1" fill="#361c04"/><rect x="47" y="23" width="1" height="1" fill="#12151a"/><rect x="18" y="24" width="1" height="1" fill="#12151a"/><rect x="19" y="24" width="3" height="1" fill="#ab8979"/><rect x="22" y="24" width="2" height="1" fill="#d6d6db"/><rect x="24" y="24" width="3" height="1" fill="#0f8d17"/><rect x="27" y="24" width="10" height="1" fill="#26201c"/><rect x="37" y="24" width="2" height="1" fill="#ab8979"/><rect x="39" y="24" width="3" height="1" fill="#a48374"/><rect x="42" y="24" width="3" height="1" fill="#361c04"/><rect x="45" y="24" width="2" height="1" fill="#a48374"/><rect x="47" y="24" width="1" height="1" fill="#12151a"/><rect x="18" y="25" width="1" height="1" fill="#12151a"/><rect x="19" y="25" width="3" height="1" fill="#ab8979"/><rect x="22" y="25" width="2" height="1" fill="#d6d6db"/><rect x="24" y="25" width="3" height="1" fill="#0f8d17"/><rect x="27" y="25" width="4" height="1" fill="#ab8979"/><rect x="31" y="25" width="6" height="1" fill="#381e05"/><rect x="37" y="25" width="2" height="1" fill="#ab8979"/><rect x="39" y="25" width="3" height="1" fill="#a48374"/><rect x="42" y="25" width="2" height="1" fill="#361c04"/><rect x="44" y="25" width="3" height="1" fill="#a48374"/><rect x="47" y="25" width="1" height="1" fill="#12151a"/><rect x="18" y="26" width="1" height="1" fill="#12151a"/><rect x="19" y="26" width="3" height="1" fill="#ab8979"/><rect x="22" y="26" width="2" height="1" fill="#d6d6db"/><rect x="24" y="26" width="3" height="1" fill="#0f8d17"/><rect x="27" y="26" width="4" height="1" fill="#ab8979"/><rect x="31" y="26" width="6" height="1" fill="#381e05"/><rect x="37" y="26" width="2" height="1" fill="#ab8979"/><rect x="39" y="26" width="2" height="1" fill="#a48374"/><rect x="41" y="26" width="3" height="1" fill="#361c04"/><rect x="44" y="26" width="3" height="1" fill="#a48374"/><rect x="47" y="26" width="1" height="1" fill="#12151a"/><rect x="18" y="27" width="1" height="1" fill="#12151a"/><rect x="19" y="27" width="12" height="1" fill="#ab8979"/><rect x="31" y="27" width="9" height="1" fill="#381e05"/><rect x="40" y="27" width="4" height="1" fill="#361c04"/><rect x="44" y="27" width="3" height="1" fill="#a48374"/><rect x="47" y="27" width="1" height="1" fill="#12151a"/><rect x="18" y="28" width="1" height="1" fill="#12151a"/><rect x="19" y="28" width="7" height="1" fill="#ab8979"/><rect x="26" y="28" width="1" height="1" fill="#92634e"/><rect x="27" y="28" width="5" height="1" fill="#ab8979"/><rect x="32" y="28" width="8" height="1" fill="#381e05"/><rect x="40" y="28" width="3" height="1" fill="#361c04"/><rect x="43" y="28" width="4" height="1" fill="#a48374"/><rect x="47" y="28" width="1" height="1" fill="#12151a"/><rect x="18" y="29" width="1" height="1" fill="#12151a"/><rect x="19" y="29" width="5" height="1" fill="#ab8979"/><rect x="24" y="29" width="3" height="1" fill="#845a46"/><rect x="27" y="29" width="5" height="1" fill="#92634e"/><rect x="32" y="29" width="8" height="1" fill="#381e05"/><rect x="40" y="29" width="1" height="1" fill="#361c04"/><rect x="41" y="29" width="6" height="1" fill="#a48374"/><rect x="47" y="29" width="1" height="1" fill="#12151a"/><rect x="18" y="30" width="1" height="1" fill="#12151a"/><rect x="19" y="30" width="5" height="1" fill="#ab8979"/><rect x="24" y="30" width="7" height="1" fill="#845a46"/><rect x="31" y="30" width="1" height="1" fill="#7f5643"/><rect x="32" y="30" width="7" height="1" fill="#ab8979"/><rect x="39" y="30" width="8" height="1" fill="#a48374"/><rect x="47" y="30" width="1" height="1" fill="#12151a"/><rect x="18" y="31" width="1" height="1" fill="#12151a"/><rect x="19" y="31" width="5" height="1" fill="#ab8979"/><rect x="24" y="31" width="7" height="1" fill="#845a46"/><rect x="31" y="31" width="1" height="1" fill="#7f5643"/><rect x="32" y="31" width="7" height="1" fill="#ab8979"/><rect x="39" y="31" width="8" height="1" fill="#a48374"/><rect x="47" y="31" width="1" height="1" fill="#12151a"/><rect x="18" y="32" width="1" height="1" fill="#12151a"/><rect x="19" y="32" width="5" height="1" fill="#ab8979"/><rect x="24" y="32" width="7" height="1" fill="#845a46"/><rect x="31" y="32" width="1" height="1" fill="#7f5643"/><rect x="32" y="32" width="7" height="1" fill="#ab8979"/><rect x="39" y="32" width="8" height="1" fill="#a48374"/><rect x="47" y="32" width="1" height="1" fill="#12151a"/><rect x="18" y="33" width="1" height="1" fill="#12151a"/><rect x="19" y="33" width="5" height="1" fill="#ab8979"/><rect x="24" y="33" width="7" height="1" fill="#845a46"/><rect x="31" y="33" width="1" height="1" fill="#7f5643"/><rect x="32" y="33" width="3" height="1" fill="#5a2d2c"/><rect x="35" y="33" width="4" height="1" fill="#ab8979"/><rect x="39" y="33" width="8" height="1" fill="#a48374"/><rect x="47" y="33" width="1" height="1" fill="#12151a"/><rect x="13" y="34" width="6" height="1" fill="#12151a"/><rect x="19" y="34" width="5" height="1" fill="#ab8979"/><rect x="24" y="34" width="7" height="1" fill="#845a46"/><rect x="31" y="34" width="1" height="1" fill="#7f5643"/><rect x="32" y="34" width="3" height="1" fill="#5a2d2c"/><rect x="35" y="34" width="4" height="1" fill="#ab8979"/><rect x="39" y="34" width="8" height="1" fill="#a48374"/><rect x="47" y="34" width="1" height="1" fill="#12151a"/><rect x="12" y="35" width="1" height="1" fill="#12151a"/><rect x="13" y="35" width="6" height="1" fill="#785952"/><rect x="19" y="35" width="5" height="1" fill="#ab8979"/><rect x="24" y="35" width="7" height="1" fill="#845a46"/><rect x="31" y="35" width="1" height="1" fill="#7f5643"/><rect x="32" y="35" width="2" height="1" fill="#ab8979"/><rect x="34" y="35" width="1" height="1" fill="#5a2d2c"/><rect x="35" y="35" width="4" height="1" fill="#ab8979"/><rect x="39" y="35" width="7" height="1" fill="#a48374"/><rect x="46" y="35" width="2" height="1" fill="#12151a"/><rect x="12" y="36" width="1" height="1" fill="#12151a"/><rect x="13" y="36" width="6" height="1" fill="#785952"/><rect x="19" y="36" width="5" height="1" fill="#ab8979"/><rect x="24" y="36" width="7" height="1" fill="#845a46"/><rect x="31" y="36" width="1" height="1" fill="#7f5643"/><rect x="32" y="36" width="7" height="1" fill="#ab8979"/><rect x="39" y="36" width="5" height="1" fill="#a48374"/><rect x="44" y="36" width="2" height="1" fill="#73564f"/><rect x="46" y="36" width="2" height="1" fill="#644a44"/><rect x="48" y="36" width="1" height="1" fill="#12151a"/><rect x="11" y="37" width="1" height="1" fill="#12151a"/><rect x="12" y="37" width="9" height="1" fill="#785952"/><rect x="21" y="37" width="3" height="1" fill="#694e47"/><rect x="24" y="37" width="7" height="1" fill="#845a46"/><rect x="31" y="37" width="1" height="1" fill="#7f5643"/><rect x="32" y="37" width="7" height="1" fill="#ab8979"/><rect x="39" y="37" width="3" height="1" fill="#a48374"/><rect x="42" y="37" width="2" height="1" fill="#73564f"/><rect x="44" y="37" width="4" height="1" fill="#644a44"/><rect x="48" y="37" width="6" height="1" fill="#12151a"/><rect x="11" y="38" width="1" height="1" fill="#12151a"/><rect x="12" y="38" width="9" height="1" fill="#785952"/><rect x="21" y="38" width="3" height="1" fill="#694e47"/><rect x="24" y="38" width="7" height="1" fill="#845a46"/><rect x="31" y="38" width="2" height="1" fill="#7f5643"/><rect x="33" y="38" width="1" height="1" fill="#322a2a"/><rect x="34" y="38" width="5" height="1" fill="#ab8979"/><rect x="39" y="38" width="1" height="1" fill="#a48374"/><rect x="40" y="38" width="3" height="1" fill="#694e47"/><rect x="43" y="38" width="1" height="1" fill="#644a44"/><rect x="44" y="38" width="9" height="1" fill="#785952"/><rect x="53" y="38" width="1" height="1" fill="#644a44"/><rect x="54" y="38" width="1" height="1" fill="#12151a"/><rect x="11" y="39" width="1" height="1" fill="#12151a"/><rect x="12" y="39" width="8" height="1" fill="#785952"/><rect x="20" y="39" width="4" height="1" fill="#192731"/><rect x="24" y="39" width="7" height="1" fill="#845a46"/><rect x="31" y="39" width="2" height="1" fill="#7f5643"/><rect x="33" y="39" width="1" height="1" fill="#322a2a"/><rect x="34" y="39" width="9" height="1" fill="#694e47"/><rect x="43" y="39" width="1" height="1" fill="#644a44"/><rect x="44" y="39" width="9" height="1" fill="#785952"/><rect x="53" y="39" width="1" height="1" fill="#644a44"/><rect x="54" y="39" width="1" height="1" fill="#12151a"/><rect x="10" y="40" width="1" height="1" fill="#12151a"/><rect x="11" y="40" width="9" height="1" fill="#785952"/><rect x="20" y="40" width="9" height="1" fill="#192731"/><rect x="29" y="40" width="2" height="1" fill="#845a46"/><rect x="31" y="40" width="2" height="1" fill="#342c2c"/><rect x="33" y="40" width="6" height="1" fill="#192731"/><rect x="39" y="40" width="1" height="1" fill="#1c2b36"/><rect x="40" y="40" width="3" height="1" fill="#694e47"/><rect x="43" y="40" width="1" height="1" fill="#644a44"/><rect x="44" y="40" width="9" height="1" fill="#785952"/><rect x="53" y="40" width="2" height="1" fill="#644a44"/><rect x="55" y="40" width="1" height="1" fill="#12151a"/><rect x="10" y="41" width="1" height="1" fill="#12151a"/><rect x="11" y="41" width="9" height="1" fill="#785952"/><rect x="20" y="41" width="10" height="1" fill="#192731"/><rect x="30" y="41" width="3" height="1" fill="#342c2c"/><rect x="33" y="41" width="10" height="1" fill="#192731"/><rect x="43" y="41" width="1" height="1" fill="#644a44"/><rect x="44" y="41" width="8" height="1" fill="#785952"/><rect x="52" y="41" width="3" height="1" fill="#644a44"/><rect x="55" y="41" width="1" height="1" fill="#12151a"/><rect x="10" y="42" width="1" height="1" fill="#12151a"/><rect x="11" y="42" width="9" height="1" fill="#785952"/><rect x="20" y="42" width="10" height="1" fill="#192731"/><rect x="30" y="42" width="3" height="1" fill="#342c2c"/><rect x="33" y="42" width="10" height="1" fill="#192731"/><rect x="43" y="42" width="9" height="1" fill="#785952"/><rect x="52" y="42" width="4" height="1" fill="#644a44"/><rect x="56" y="42" width="1" height="1" fill="#12151a"/><rect x="9" y="43" width="1" height="1" fill="#12151a"/><rect x="10" y="43" width="10" height="1" fill="#785952"/><rect x="20" y="43" width="10" height="1" fill="#192731"/><rect x="30" y="43" width="3" height="1" fill="#342c2c"/><rect x="33" y="43" width="9" height="1" fill="#192731"/><rect x="42" y="43" width="10" height="1" fill="#785952"/><rect x="52" y="43" width="4" height="1" fill="#644a44"/><rect x="56" y="43" width="1" height="1" fill="#12151a"/><rect x="9" y="44" width="1" height="1" fill="#12151a"/><rect x="10" y="44" width="9" height="1" fill="#785952"/><rect x="19" y="44" width="1" height="1" fill="#1d2d38"/><rect x="20" y="44" width="10" height="1" fill="#192731"/><rect x="30" y="44" width="3" height="1" fill="#342c2c"/><rect x="33" y="44" width="9" height="1" fill="#192731"/><rect x="42" y="44" width="9" height="1" fill="#785952"/><rect x="51" y="44" width="5" height="1" fill="#644a44"/><rect x="56" y="44" width="1" height="1" fill="#12151a"/><rect x="9" y="45" width="1" height="1" fill="#12151a"/><rect x="10" y="45" width="9" height="1" fill="#785952"/><rect x="19" y="45" width="9" height="1" fill="#1d2d38"/><rect x="28" y="45" width="2" height="1" fill="#616370"/><rect x="30" y="45" width="1" height="1" fill="#1d2d38"/><rect x="31" y="45" width="2" height="1" fill="#342c2c"/><rect x="33" y="45" width="9" height="1" fill="#192731"/><rect x="42" y="45" width="9" height="1" fill="#785952"/><rect x="51" y="45" width="5" height="1" fill="#644a44"/><rect x="56" y="45" width="1" height="1" fill="#12151a"/><rect x="8" y="46" width="1" height="1" fill="#12151a"/><rect x="9" y="46" width="9" height="1" fill="#785952"/><rect x="18" y="46" width="10" height="1" fill="#1d2d38"/><rect x="28" y="46" width="2" height="1" fill="#616370"/><rect x="30" y="46" width="10" height="1" fill="#1d2d38"/><rect x="40" y="46" width="2" height="1" fill="#192731"/><rect x="42" y="46" width="9" height="1" fill="#785952"/><rect x="51" y="46" width="4" height="1" fill="#644a44"/><rect x="55" y="46" width="1" height="1" fill="#12151a"/><rect x="8" y="47" width="1" height="1" fill="#12151a"/><rect x="9" y="47" width="9" height="1" fill="#785952"/><rect x="18" y="47" width="10" height="1" fill="#1d2d38"/><rect x="28" y="47" width="2" height="1" fill="#616370"/><rect x="30" y="47" width="12" height="1" fill="#1d2d38"/><rect x="42" y="47" width="8" height="1" fill="#785952"/><rect x="50" y="47" width="5" height="1" fill="#644a44"/><rect x="55" y="47" width="1" height="1" fill="#12151a"/><rect x="8" y="48" width="1" height="1" fill="#12151a"/><rect x="9" y="48" width="9" height="1" fill="#785952"/><rect x="18" y="48" width="10" height="1" fill="#1d2d38"/><rect x="28" y="48" width="1" height="1" fill="#616370"/><rect x="29" y="48" width="1" height="1" fill="#51525d"/><rect x="30" y="48" width="12" height="1" fill="#1d2d38"/><rect x="42" y="48" width="8" height="1" fill="#785952"/><rect x="50" y="48" width="5" height="1" fill="#644a44"/><rect x="55" y="48" width="1" height="1" fill="#12151a"/><rect x="7" y="49" width="1" height="1" fill="#12151a"/><rect x="8" y="49" width="9" height="1" fill="#785952"/><rect x="17" y="49" width="10" height="1" fill="#1d2d38"/><rect x="27" y="49" width="4" height="1" fill="#616370"/><rect x="31" y="49" width="10" height="1" fill="#1d2d38"/><rect x="41" y="49" width="9" height="1" fill="#785952"/><rect x="50" y="49" width="4" height="1" fill="#644a44"/><rect x="54" y="49" width="1" height="1" fill="#12151a"/><rect x="7" y="50" width="1" height="1" fill="#12151a"/><rect x="8" y="50" width="9" height="1" fill="#785952"/><rect x="17" y="50" width="12" height="1" fill="#1d2d38"/><rect x="29" y="50" width="2" height="1" fill="#616370"/><rect x="31" y="50" width="10" height="1" fill="#1d2d38"/><rect x="41" y="50" width="8" height="1" fill="#785952"/><rect x="49" y="50" width="5" height="1" fill="#644a44"/><rect x="54" y="50" width="1" height="1" fill="#12151a"/><rect x="7" y="51" width="1" height="1" fill="#12151a"/><rect x="8" y="51" width="9" height="1" fill="#785952"/><rect x="17" y="51" width="12" height="1" fill="#1d2d38"/><rect x="29" y="51" width="2" height="1" fill="#616370"/><rect x="31" y="51" width="10" height="1" fill="#1d2d38"/><rect x="41" y="51" width="8" height="1" fill="#785952"/><rect x="49" y="51" width="5" height="1" fill="#644a44"/><rect x="54" y="51" width="1" height="1" fill="#12151a"/><rect x="7" y="52" width="1" height="1" fill="#12151a"/><rect x="8" y="52" width="8" height="1" fill="#553f3a"/><rect x="16" y="52" width="1" height="1" fill="#785952"/><rect x="17" y="52" width="11" height="1" fill="#1d2d38"/><rect x="28" y="52" width="3" height="1" fill="#616370"/><rect x="31" y="52" width="9" height="1" fill="#1d2d38"/><rect x="40" y="52" width="9" height="1" fill="#785952"/><rect x="49" y="52" width="4" height="1" fill="#644a44"/><rect x="53" y="52" width="1" height="1" fill="#12151a"/><rect x="8" y="53" width="1" height="1" fill="#12151a"/><rect x="9" y="53" width="8" height="1" fill="#553f3a"/><rect x="17" y="53" width="10" height="1" fill="#142028"/><rect x="27" y="53" width="1" height="1" fill="#1d2d38"/><rect x="28" y="53" width="1" height="1" fill="#44464f"/><rect x="29" y="53" width="1" height="1" fill="#616370"/><rect x="30" y="53" width="10" height="1" fill="#1d2d38"/><rect x="40" y="53" width="8" height="1" fill="#785952"/><rect x="48" y="53" width="5" height="1" fill="#644a44"/><rect x="53" y="53" width="1" height="1" fill="#12151a"/><rect x="8" y="54" width="1" height="1" fill="#12151a"/><rect x="9" y="54" width="9" height="1" fill="#553f3a"/><rect x="18" y="54" width="10" height="1" fill="#142028"/><rect x="28" y="54" width="1" height="1" fill="#18252f"/><rect x="29" y="54" width="1" height="1" fill="#44464f"/><rect x="30" y="54" width="6" height="1" fill="#142028"/><rect x="36" y="54" width="4" height="1" fill="#1d2d38"/><rect x="40" y="54" width="8" height="1" fill="#785952"/><rect x="48" y="54" width="5" height="1" fill="#644a44"/><rect x="53" y="54" width="1" height="1" fill="#12151a"/><rect x="9" y="55" width="1" height="1" fill="#12151a"/><rect x="10" y="55" width="8" height="1" fill="#553f3a"/><rect x="18" y="55" width="11" height="1" fill="#142028"/><rect x="29" y="55" width="2" height="1" fill="#44464f"/><rect x="31" y="55" width="9" height="1" fill="#142028"/><rect x="40" y="55" width="8" height="1" fill="#553f3a"/><rect x="48" y="55" width="4" height="1" fill="#644a44"/><rect x="52" y="55" width="1" height="1" fill="#12151a"/><rect x="10" y="56" width="1" height="1" fill="#12151a"/><rect x="11" y="56" width="8" height="1" fill="#553f3a"/><rect x="19" y="56" width="11" height="1" fill="#142028"/><rect x="30" y="56" width="1" height="1" fill="#44464f"/><rect x="31" y="56" width="9" height="1" fill="#142028"/><rect x="40" y="56" width="1" height="1" fill="#18252f"/><rect x="41" y="56" width="7" height="1" fill="#553f3a"/><rect x="48" y="56" width="4" height="1" fill="#644a44"/><rect x="52" y="56" width="1" height="1" fill="#12151a"/><rect x="11" y="57" width="11" height="1" fill="#12151a"/><rect x="22" y="57" width="8" height="1" fill="#142028"/><rect x="30" y="57" width="2" height="1" fill="#44464f"/><rect x="32" y="57" width="9" height="1" fill="#142028"/><rect x="41" y="57" width="8" height="1" fill="#553f3a"/><rect x="49" y="57" width="3" height="1" fill="#644a44"/><rect x="52" y="57" width="1" height="1" fill="#12151a"/><rect x="22" y="58" width="11" height="1" fill="#12151a"/><rect x="33" y="58" width="9" height="1" fill="#142028"/><rect x="42" y="58" width="8" height="1" fill="#553f3a"/><rect x="50" y="58" width="1" height="1" fill="#644a44"/><rect x="51" y="58" width="1" height="1" fill="#12151a"/><rect x="33" y="59" width="10" height="1" fill="#12151a"/><rect x="43" y="59" width="7" height="1" fill="#553f3a"/><rect x="50" y="59" width="1" height="1" fill="#644a44"/><rect x="51" y="59" width="1" height="1" fill="#12151a"/><rect x="43" y="60" width="8" height="1" fill="#12151a"/></symbol></defs><use href="#art-villager" x="-4" y="0" width="46" height="46"/><use href="#art-villager" x="24" y="0" width="44" height="44"/><polygon points="22,38 25,35 30,35 33,39 36,35 41,35 44,38 44,45 33,56 22,45" fill="#ff7495" stroke="#131820" stroke-width="1.5" stroke-linejoin="miter"/></svg>