<svg xmlns="http://www.w3.org/2000/svg" viewBox="0 0 64 64" shape-rendering="crispEdges" aria-hidden="true"><defs><symbol id="art-stand" viewBox="0 0 64 64"><rect x="51" y="10" width="2" height="1" fill="#12151a"/><rect x="45" y="11" width="6" height="1" fill="#12151a"/><rect x="51" y="11" width="2" height="1" fill="#6c3a09"/><rect x="53" y="11" width="1" height="1" fill="#12151a"/><rect x="39" y="12" width="6" height="1" fill="#12151a"/><rect x="45" y="12" width="9" height="1" fill="#6c3a09"/><rect x="54" y="12" width="1" height="1" fill="#12151a"/><rect x="33" y="13" width="6" height="1" fill="#12151a"/><rect x="39" y="13" width="12" height="1" fill="#6c3a09"/><rect x="51" y="13" width="4" height="1" fill="#502b07"/><rect x="55" y="13" width="1" height="1" fill="#12151a"/><rect x="32" y="14" width="1" height="1" fill="#12151a"/><rect x="33" y="14" width="12" height="1" fill="#6c3a09"/><rect x="45" y="14" width="6" height="1" fill="#502b07"/><rect x="51" y="14" width="4" height="1" fill="#d80000"/><rect x="55" y="14" width="1" height="1" fill="#12151a"/><rect x="31" y="15" width="1" height="1" fill="#12151a"/><rect x="32" y="15" width="1" height="1" fill="#bf0000"/><rect x="33" y="15" width="2" height="1" fill="#502b07"/><rect x="35" y="15" width="4" height="1" fill="#6c3a09"/><rect x="39" y="15" width="8" height="1" fill="#502b07"/><rect x="47" y="15" width="3" height="1" fill="#d2d2d2"/><rect x="50" y="15" width="6" height="1" fill="#d80000"/><rect x="56" y="15" width="1" height="1" fill="#12151a"/><rect x="31" y="16" width="1" height="1" fill="#12151a"/><rect x="32" y="16" width="1" height="1" fill="#bf0000"/><rect x="33" y="16" width="7" height="1" fill="#502b07"/><rect x="40" y="16" width="6" height="1" fill="#d80000"/><rect x="46" y="16" width="5" height="1" fill="#d2d2d2"/><rect x="51" y="16" width="5" height="1" fill="#d80000"/><rect x="56" y="16" width="1" height="1" fill="#12151a"/><rect x="18" y="17" width="3" height="1" fill="#12151a"/><rect x="30" y="17" width="1" height="1" fill="#12151a"/><rect x="31" y="17" width="2" height="1" fill="#bf0000"/><rect x="33" y="17" width="2" height="1" fill="#502b07"/><rect x="35" y="17" width="1" height="1" fill="#bababa"/><rect x="36" y="17" width="5" height="1" fill="#d2d2d2"/><rect x="41" y="17" width="5" height="1" fill="#d80000"/><rect x="46" y="17" width="5" height="1" fill="#d2d2d2"/><rect x="51" y="17" width="5" height="1" fill="#d80000"/><rect x="56" y="17" width="1" height="1" fill="#12151a"/><rect x="15" y="18" width="3" height="1" fill="#12151a"/><rect x="18" y="18" width="3" height="1" fill="#bd9786"/><rect x="21" y="18" width="2" height="1" fill="#12151a"/><rect x="29" y="18" width="1" height="1" fill="#12151a"/><rect x="30" y="18" width="3" height="1" fill="#bf0000"/><rect x="33" y="18" width="2" height="1" fill="#502b07"/><rect x="35" y="18" width="1" height="1" fill="#bababa"/><rect x="36" y="18" width="5" height="1" fill="#d2d2d2"/><rect x="41" y="18" width="5" height="1" fill="#d80000"/><rect x="46" y="18" width="5" height="1" fill="#d2d2d2"/><rect x="51" y="18" width="6" height="1" fill="#d80000"/><rect x="57" y="18" width="1" height="1" fill="#12151a"/><rect x="14" y="19" width="1" height="1" fill="#12151a"/><rect x="15" y="19" width="1" height="1" fill="#8b6f62"/><rect x="16" y="19" width="7" height="1" fill="#bd9786"/><rect x="23" y="19" width="1" height="1" fill="#12151a"/><rect x="29" y="19" width="1" height="1" fill="#12151a"/><rect x="30" y="19" width="3" height="1" fill="#bf0000"/><rect x="33" y="19" width="2" height="1" fill="#502b07"/><rect x="35" y="19" width="1" height="1" fill="#bababa"/><rect x="36" y="19" width="5" height="1" fill="#d2d2d2"/><rect x="41" y="19" width="1" height="1" fill="#bf0000"/><rect x="42" y="19" width="5" height="1" fill="#d80000"/><rect x="47" y="19" width="5" height="1" fill="#d2d2d2"/><rect x="52" y="19" width="5" height="1" fill="#d80000"/><rect x="57" y="19" width="1" height="1" fill="#12151a"/><rect x="14" y="20" width="1" height="1" fill="#12151a"/><rect x="15" y="20" width="8" height="1" fill="#8b6f62"/><rect x="23" y="20" width="1" height="1" fill="#12151a"/><rect x="28" y="20" width="1" height="1" fill="#12151a"/><rect x="29" y="20" width="4" height="1" fill="#bf0000"/><rect x="33" y="20" width="1" height="1" fill="#5d5f6b"/><rect x="34" y="20" width="1" height="1" fill="#bf0000"/><rect x="35" y="20" width="2" height="1" fill="#bababa"/><rect x="37" y="20" width="5" height="1" fill="#d2d2d2"/><rect x="42" y="20" width="5" height="1" fill="#d80000"/><rect x="47" y="20" width="5" height="1" fill="#d2d2d2"/><rect x="52" y="20" width="5" height="1" fill="#d80000"/><rect x="57" y="20" width="1" height="1" fill="#12151a"/><rect x="14" y="21" width="1" height="1" fill="#12151a"/><rect x="15" y="21" width="1" height="1" fill="#2e1804"/><rect x="16" y="21" width="7" height="1" fill="#8b6f62"/><rect x="23" y="21" width="1" height="1" fill="#12151a"/><rect x="28" y="21" width="1" height="1" fill="#12151a"/><rect x="29" y="21" width="2" height="1" fill="#bf0000"/><rect x="31" y="21" width="1" height="1" fill="#44464f"/><rect x="32" y="21" width="1" height="1" fill="#5d5f6b"/><rect x="33" y="21" width="2" height="1" fill="#6c3a09"/><rect x="35" y="21" width="2" height="1" fill="#bababa"/><rect x="37" y="21" width="5" height="1" fill="#d2d2d2"/><rect x="42" y="21" width="5" height="1" fill="#d80000"/><rect x="47" y="21" width="5" height="1" fill="#d2d2d2"/><rect x="52" y="21" width="1" height="1" fill="#bf0000"/><rect x="53" y="21" width="5" height="1" fill="#d80000"/><rect x="58" y="21" width="1" height="1" fill="#12151a"/><rect x="14" y="22" width="1" height="1" fill="#12151a"/><rect x="15" y="22" width="1" height="1" fill="#8b6f62"/><rect x="16" y="22" width="1" height="1" fill="#2e1804"/><rect x="17" y="22" width="1" height="1" fill="#8b6f62"/><rect x="18" y="22" width="1" height="1" fill="#3e2105"/><rect x="19" y="22" width="4" height="1" fill="#8b6f62"/><rect x="23" y="22" width="1" height="1" fill="#12151a"/><rect x="28" y="22" width="1" height="1" fill="#12151a"/><rect x="29" y="22" width="2" height="1" fill="#bf0000"/><rect x="31" y="22" width="1" height="1" fill="#44464f"/><rect x="32" y="22" width="2" height="1" fill="#502b07"/><rect x="34" y="22" width="2" height="1" fill="#6c3a09"/><rect x="36" y="22" width="1" height="1" fill="#bababa"/><rect x="37" y="22" width="5" height="1" fill="#d2d2d2"/><rect x="42" y="22" width="1" height="1" fill="#bf0000"/><rect x="43" y="22" width="5" height="1" fill="#d80000"/><rect x="48" y="22" width="5" height="1" fill="#d2d2d2"/><rect x="53" y="22" width="5" height="1" fill="#d80000"/><rect x="58" y="22" width="1" height="1" fill="#12151a"/><rect x="14" y="23" width="1" height="1" fill="#12151a"/><rect x="15" y="23" width="4" height="1" fill="#8b6f62"/><rect x="19" y="23" width="1" height="1" fill="#2e1804"/><rect x="20" y="23" width="1" height="1" fill="#8b6f62"/><rect x="21" y="23" width="1" height="1" fill="#1f1a17"/><rect x="22" y="23" width="1" height="1" fill="#8b6f62"/><rect x="23" y="23" width="1" height="1" fill="#12151a"/><rect x="29" y="23" width="2" height="1" fill="#12151a"/><rect x="31" y="23" width="1" height="1" fill="#44464f"/><rect x="32" y="23" width="3" height="1" fill="#502b07"/><rect x="35" y="23" width="1" height="1" fill="#6c3a09"/><rect x="36" y="23" width="2" height="1" fill="#bababa"/><rect x="38" y="23" width="5" height="1" fill="#d2d2d2"/><rect x="43" y="23" width="5" height="1" fill="#d80000"/><rect x="48" y="23" width="5" height="1" fill="#d2d2d2"/><rect x="53" y="23" width="5" height="1" fill="#d80000"/><rect x="58" y="23" width="1" height="1" fill="#12151a"/><rect x="14" y="24" width="1" height="1" fill="#12151a"/><rect x="15" y="24" width="3" height="1" fill="#8b6f62"/><rect x="18" y="24" width="1" height="1" fill="#adadb1"/><rect x="19" y="24" width="1" height="1" fill="#8b6f62"/><rect x="20" y="24" width="3" height="1" fill="#2e1804"/><rect x="23" y="24" width="1" height="1" fill="#12151a"/><rect x="30" y="24" width="1" height="1" fill="#12151a"/><rect x="31" y="24" width="5" height="1" fill="#502b07"/><rect x="36" y="24" width="1" height="1" fill="#44464f"/><rect x="37" y="24" width="1" height="1" fill="#bababa"/><rect x="38" y="24" width="5" height="1" fill="#d2d2d2"/><rect x="43" y="24" width="5" height="1" fill="#d80000"/><rect x="48" y="24" width="5" height="1" fill="#d2d2d2"/><rect x="53" y="24" width="1" height="1" fill="#bf0000"/><rect x="54" y="24" width="5" height="1" fill="#d80000"/><rect x="59" y="24" width="1" height="1" fill="#12151a"/><rect x="14" y="25" width="1" height="1" fill="#12151a"/><rect x="15" y="25" width="4" height="1" fill="#8b6f62"/><rect x="19" y="25" width="2" height="1" fill="#92634e"/><rect x="21" y="25" width="2" height="1" fill="#8b6f62"/><rect x="23" y="25" width="2" height="1" fill="#12151a"/><rect x="30" y="25" width="1" height="1" fill="#12151a"/><rect x="31" y="25" width="5" height="1" fill="#502b07"/><rect x="36" y="25" width="1" height="1" fill="#44464f"/><rect x="37" y="25" width="1" height="1" fill="#bababa"/><rect x="38" y="25" width="6" height="1" fill="#d2d2d2"/><rect x="44" y="25" width="5" height="1" fill="#d80000"/><rect x="49" y="25" width="5" height="1" fill="#d2d2d2"/><rect x="54" y="25" width="5" height="1" fill="#d80000"/><rect x="59" y="25" width="1" height="1" fill="#12151a"/><rect x="14" y="26" width="1" height="1" fill="#12151a"/><rect x="15" y="26" width="4" height="1" fill="#8b6f62"/><rect x="19" y="26" width="2" height="1" fill="#6b4939"/><rect x="21" y="26" width="1" height="1" fill="#492523"/><rect x="22" y="26" width="1" height="1" fill="#8b6f62"/><rect x="23" y="26" width="2" height="1" fill="#5f4641"/><rect x="25" y="26" width="1" height="1" fill="#12151a"/><rect x="30" y="26" width="1" height="1" fill="#12151a"/><rect x="31" y="26" width="4" height="1" fill="#502b07"/><rect x="35" y="26" width="1" height="1" fill="#12151a"/><rect x="36" y="26" width="1" height="1" fill="#44464f"/><rect x="37" y="26" width="2" height="1" fill="#bababa"/><rect x="39" y="26" width="5" height="1" fill="#d2d2d2"/><rect x="44" y="26" width="5" height="1" fill="#d80000"/><rect x="49" y="26" width="3" height="1" fill="#d2d2d2"/><rect x="52" y="26" width="2" height="1" fill="#bababa"/><rect x="54" y="26" width="4" height="1" fill="#bf0000"/><rect x="58" y="26" width="1" height="1" fill="#12151a"/><rect x="13" y="27" width="2" height="1" fill="#12151a"/><rect x="15" y="27" width="1" height="1" fill="#5f4641"/><rect x="16" y="27" width="1" height="1" fill="#73564f"/><rect x="17" y="27" width="2" height="1" fill="#8b6f62"/><rect x="19" y="27" width="2" height="1" fill="#6b4939"/><rect x="21" y="27" width="1" height="1" fill="#553f3a"/><rect x="22" y="27" width="1" height="1" fill="#142028"/><rect x="23" y="27" width="2" height="1" fill="#5f4641"/><rect x="25" y="27" width="1" height="1" fill="#12151a"/><rect x="30" y="27" width="1" height="1" fill="#12151a"/><rect x="31" y="27" width="4" height="1" fill="#502b07"/><rect x="35" y="27" width="1" height="1" fill="#12151a"/><rect x="36" y="27" width="2" height="1" fill="#502b07"/><rect x="38" y="27" width="1" height="1" fill="#bababa"/><rect x="39" y="27" width="5" height="1" fill="#d2d2d2"/><rect x="44" y="27" width="3" height="1" fill="#d80000"/><rect x="47" y="27" width="2" height="1" fill="#bf0000"/><rect x="49" y="27" width="4" height="1" fill="#bababa"/><rect x="53" y="27" width="1" height="1" fill="#bf0000"/><rect x="54" y="27" width="2" height="1" fill="#502b07"/><rect x="56" y="27" width="2" height="1" fill="#12151a"/><rect x="12" y="28" width="1" height="1" fill="#12151a"/><rect x="13" y="28" width="1" height="1" fill="#553f3a"/><rect x="14" y="28" width="3" height="1" fill="#5f4641"/><rect x="17" y="28" width="2" height="1" fill="#142028"/><rect x="19" y="28" width="1" height="1" fill="#2a2324"/><rect x="20" y="28" width="3" height="1" fill="#142028"/><rect x="23" y="28" width="2" height="1" fill="#5f4641"/><rect x="25" y="28" width="1" height="1" fill="#12151a"/><rect x="30" y="28" width="1" height="1" fill="#12151a"/><rect x="31" y="28" width="4" height="1" fill="#502b07"/><rect x="35" y="28" width="1" height="1" fill="#12151a"/><rect x="36" y="28" width="2" height="1" fill="#502b07"/><rect x="38" y="28" width="1" height="1" fill="#bababa"/><rect x="39" y="28" width="1" height="1" fill="#d2d2d2"/><rect x="40" y="28" width="4" height="1" fill="#bababa"/><rect x="44" y="28" width="4" height="1" fill="#bf0000"/><rect x="48" y="28" width="1" height="1" fill="#6c3a09"/><rect x="49" y="28" width="3" height="1" fill="#502b07"/><rect x="52" y="28" width="1" height="1" fill="#12151a"/><rect x="53" y="28" width="3" height="1" fill="#502b07"/><rect x="56" y="28" width="1" height="1" fill="#12151a"/><rect x="12" y="29" width="1" height="1" fill="#12151a"/><rect x="13" y="29" width="1" height="1" fill="#553f3a"/><rect x="14" y="29" width="3" height="1" fill="#5f4641"/><rect x="17" y="29" width="2" height="1" fill="#142028"/><rect x="19" y="29" width="1" height="1" fill="#2a2324"/><rect x="20" y="29" width="3" height="1" fill="#17232c"/><rect x="23" y="29" width="3" height="1" fill="#5f4641"/><rect x="26" y="29" width="1" height="1" fill="#12151a"/><rect x="30" y="29" width="1" height="1" fill="#12151a"/><rect x="31" y="29" width="4" height="1" fill="#502b07"/><rect x="35" y="29" width="1" height="1" fill="#12151a"/><rect x="36" y="29" width="3" height="1" fill="#502b07"/><rect x="39" y="29" width="2" height="1" fill="#bababa"/><rect x="41" y="29" width="5" height="1" fill="#6c3a09"/><rect x="46" y="29" width="4" height="1" fill="#502b07"/><rect x="50" y="29" width="3" height="1" fill="#6c3a09"/><rect x="53" y="29" width="3" height="1" fill="#502b07"/><rect x="56" y="29" width="1" height="1" fill="#12151a"/><rect x="13" y="30" width="1" height="1" fill="#12151a"/><rect x="14" y="30" width="1" height="1" fill="#553f3a"/><rect x="15" y="30" width="2" height="1" fill="#5f4641"/><rect x="17" y="30" width="3" height="1" fill="#17232c"/><rect x="20" y="30" width="1" height="1" fill="#4c4e58"/><rect x="21" y="30" width="3" height="1" fill="#17232c"/><rect x="24" y="30" width="2" height="1" fill="#5f4641"/><rect x="26" y="30" width="1" height="1" fill="#12151a"/><rect x="28" y="30" width="3" height="1" fill="#12151a"/><rect x="31" y="30" width="4" height="1" fill="#502b07"/><rect x="35" y="30" width="1" height="1" fill="#6c3a09"/><rect x="36" y="30" width="16" height="1" fill="#502b07"/><rect x="52" y="30" width="1" height="1" fill="#6c3a09"/><rect x="53" y="30" width="3" height="1" fill="#502b07"/><rect x="56" y="30" width="1" height="1" fill="#12151a"/><rect x="13" y="31" width="1" height="1" fill="#12151a"/><rect x="14" y="31" width="1" height="1" fill="#553f3a"/><rect x="15" y="31" width="3" height="1" fill="#5f4641"/><rect x="18" y="31" width="5" height="1" fill="#17232c"/><rect x="23" y="31" width="1" height="1" fill="#142028"/><rect x="24" y="31" width="2" height="1" fill="#553f3a"/><rect x="26" y="31" width="2" height="1" fill="#12151a"/><rect x="28" y="31" width="4" height="1" fill="#6c3a09"/><rect x="32" y="31" width="2" height="1" fill="#502b07"/><rect x="34" y="31" width="1" height="1" fill="#6c3a09"/><rect x="35" y="31" width="17" height="1" fill="#502b07"/><rect x="52" y="31" width="1" height="1" fill="#6c3a09"/><rect x="53" y="31" width="3" height="1" fill="#502b07"/><rect x="56" y="31" width="1" height="1" fill="#12151a"/><rect x="13" y="32" width="1" height="1" fill="#12151a"/><rect x="14" y="32" width="4" height="1" fill="#553f3a"/><rect x="18" y="32" width="2" height="1" fill="#142028"/><rect x="20" y="32" width="1" height="1" fill="#44464f"/><rect x="21" y="32" width="1" height="1" fill="#142028"/><rect x="22" y="32" width="14" height="1" fill="#6c3a09"/><rect x="36" y="32" width="10" height="1" fill="#502b07"/><rect x="46" y="32" width="6" height="1" fill="#6c3a09"/><rect x="52" y="32" width="4" height="1" fill="#502b07"/><rect x="56" y="32" width="1" height="1" fill="#12151a"/><rect x="12" y="33" width="3" height="1" fill="#12151a"/><rect x="15" y="33" width="1" height="1" fill="#553f3a"/><rect x="16" y="33" width="18" height="1" fill="#6c3a09"/><rect x="34" y="33" width="1" height="1" fill="#502b07"/><rect x="35" y="33" width="1" height="1" fill="#6c3a09"/><rect x="36" y="33" width="4" height="1" fill="#502b07"/><rect x="40" y="33" width="6" height="1" fill="#6c3a09"/><rect x="46" y="33" width="10" height="1" fill="#502b07"/><rect x="56" y="33" width="1" height="1" fill="#12151a"/><rect x="11" y="34" width="1" height="1" fill="#12151a"/><rect x="12" y="34" width="16" height="1" fill="#6c3a09"/><rect x="28" y="34" width="1" height="1" fill="#502b07"/><rect x="29" y="34" width="2" height="1" fill="#d9753e"/><rect x="31" y="34" width="4" height="1" fill="#a0562e"/><rect x="35" y="34" width="21" height="1" fill="#502b07"/><rect x="56" y="34" width="1" height="1" fill="#12151a"/><rect x="11" y="35" width="1" height="1" fill="#12151a"/><rect x="12" y="35" width="2" height="1" fill="#502b07"/><rect x="14" y="35" width="8" height="1" fill="#6c3a09"/><rect x="22" y="35" width="1" height="1" fill="#502b07"/><rect x="23" y="35" width="2" height="1" fill="#d9753e"/><rect x="25" y="35" width="10" height="1" fill="#a0562e"/><rect x="35" y="35" width="21" height="1" fill="#502b07"/><rect x="56" y="35" width="1" height="1" fill="#12151a"/><rect x="11" y="36" width="1" height="1" fill="#12151a"/><rect x="12" y="36" width="3" height="1" fill="#502b07"/><rect x="15" y="36" width="1" height="1" fill="#6c3a09"/><rect x="16" y="36" width="2" height="1" fill="#502b07"/><rect x="18" y="36" width="1" height="1" fill="#d9753e"/><rect x="19" y="36" width="16" height="1" fill="#a0562e"/><rect x="35" y="36" width="21" height="1" fill="#502b07"/><rect x="56" y="36" width="1" height="1" fill="#12151a"/><rect x="11" y="37" width="1" height="1" fill="#12151a"/><rect x="12" y="37" width="6" height="1" fill="#502b07"/><rect x="18" y="37" width="17" height="1" fill="#a0562e"/><rect x="35" y="37" width="21" height="1" fill="#502b07"/><rect x="56" y="37" width="1" height="1" fill="#12151a"/><rect x="11" y="38" width="1" height="1" fill="#12151a"/><rect x="12" y="38" width="6" height="1" fill="#502b07"/><rect x="18" y="38" width="17" height="1" fill="#a0562e"/><rect x="35" y="38" width="21" height="1" fill="#502b07"/><rect x="56" y="38" width="1" height="1" fill="#12151a"/><rect x="9" y="39" width="3" height="1" fill="#12151a"/><rect x="12" y="39" width="6" height="1" fill="#502b07"/><rect x="18" y="39" width="13" height="1" fill="#a0562e"/><rect x="31" y="39" width="1" height="1" fill="#5d9d4e"/><rect x="32" y="39" width="24" height="1" fill="#502b07"/><rect x="56" y="39" width="1" height="1" fill="#12151a"/><rect x="4" y="40" width="5" height="1" fill="#12151a"/><rect x="9" y="40" width="3" height="1" fill="#5d9d4e"/><rect x="12" y="40" width="6" height="1" fill="#502b07"/><rect x="18" y="40" width="7" height="1" fill="#a0562e"/><rect x="25" y="40" width="9" height="1" fill="#5d9d4e"/><rect x="34" y="40" width="16" height="1" fill="#502b07"/><rect x="50" y="40" width="2" height="1" fill="#5d9d4e"/><rect x="52" y="40" width="4" height="1" fill="#12151a"/><rect x="3" y="41" width="1" height="1" fill="#12151a"/><rect x="4" y="41" width="8" height="1" fill="#5d9d4e"/><rect x="12" y="41" width="6" height="1" fill="#502b07"/><rect x="18" y="41" width="1" height="1" fill="#a0562e"/><rect x="19" y="41" width="16" height="1" fill="#5d9d4e"/><rect x="35" y="41" width="9" height="1" fill="#502b07"/><rect x="44" y="41" width="9" height="1" fill="#5d9d4e"/><rect x="53" y="41" width="2" height="1" fill="#12151a"/><rect x="4" y="42" width="2" height="1" fill="#12151a"/><rect x="6" y="42" width="7" height="1" fill="#5d9d4e"/><rect x="13" y="42" width="5" height="1" fill="#502b07"/><rect x="18" y="42" width="19" height="1" fill="#5d9d4e"/><rect x="37" y="42" width="1" height="1" fill="#502b07"/><rect x="38" y="42" width="17" height="1" fill="#5d9d4e"/><rect x="55" y="42" width="1" height="1" fill="#12151a"/><rect x="6" y="43" width="1" height="1" fill="#12151a"/><rect x="7" y="43" width="7" height="1" fill="#5d9d4e"/><rect x="14" y="43" width="4" height="1" fill="#502b07"/><rect x="18" y="43" width="38" height="1" fill="#5d9d4e"/><rect x="56" y="43" width="2" height="1" fill="#12151a"/><rect x="7" y="44" width="2" height="1" fill="#12151a"/><rect x="9" y="44" width="49" height="1" fill="#5d9d4e"/><rect x="58" y="44" width="1" height="1" fill="#12151a"/><rect x="9" y="45" width="1" height="1" fill="#12151a"/><rect x="10" y="45" width="1" height="1" fill="#447439"/><rect x="11" y="45" width="48" height="1" fill="#5d9d4e"/><rect x="59" y="45" width="1" height="1" fill="#12151a"/><rect x="10" y="46" width="2" height="1" fill="#12151a"/><rect x="12" y="46" width="44" height="1" fill="#5d9d4e"/><rect x="56" y="46" width="1" height="1" fill="#447439"/><rect x="57" y="46" width="2" height="1" fill="#12151a"/><rect x="12" y="47" width="1" height="1" fill="#12151a"/><rect x="13" y="47" width="1" height="1" fill="#447439"/><rect x="14" y="47" width="37" height="1" fill="#5d9d4e"/><rect x="51" y="47" width="1" height="1" fill="#447439"/><rect x="52" y="47" width="5" height="1" fill="#12151a"/><rect x="13" y="48" width="2" height="1" fill="#12151a"/><rect x="15" y="48" width="30" height="1" fill="#5d9d4e"/><rect x="45" y="48" width="1" height="1" fill="#447439"/><rect x="46" y="48" width="6" height="1" fill="#12151a"/><rect x="15" y="49" width="1" height="1" fill="#12151a"/><rect x="16" y="49" width="1" height="1" fill="#447439"/><rect x="17" y="49" width="22" height="1" fill="#5d9d4e"/><rect x="39" y="49" width="1" height="1" fill="#447439"/><rect x="40" y="49" width="6" height="1" fill="#12151a"/><rect x="16" y="50" width="2" height="1" fill="#12151a"/><rect x="18" y="50" width="16" height="1" fill="#5d9d4e"/><rect x="34" y="50" width="6" height="1" fill="#12151a"/><rect x="18" y="51" width="2" height="1" fill="#12151a"/><rect x="20" y="51" width="8" height="1" fill="#5d9d4e"/><rect x="28" y="51" width="1" height="1" fill="#447439"/><rect x="29" y="51" width="5" height="1" fill="#12151a"/><rect x="20" y="52" width="1" height="1" fill="#12151a"/><rect x="21" y="52" width="1" height="1" fill="#5d9d4e"/><rect x="22" y="52" width="1" height="1" fill="#447439"/><rect x="23" y="52" width="6" height="1" fill="#12151a"/><rect x="21" y="53" width="2" height="1" fill="#12151a"/></symbol></defs><use href="#art-stand" x="-3" y="0" width="43" height="43"/><use href="#art-stand" x="26" y="5" width="39" height="39"/><use href="#art-stand" x="9" y="29" width="42" height="42"/></svg>